<svg id="图层_1" data-name="图层 1" xmlns="http://www.w3.org/2000/svg" viewBox="0 0 2621.26 560.68"><defs><style>.cls-1{fill:#5b9bd5;}.cls-2,.cls-3{fill:#fff;}.cls-3{font-size:300px;stroke:#000;stroke-miterlimit:10;stroke-width:4px;font-family:AgencyFB-Reg, Agency FB;}</style></defs><title>ENS-Logo-SQ</title><rect class="cls-1" width="560.68" height="560.68"/><path class="cls-2" d="M151.25,481.26V465.62h28.83V262.72H151.25V247.07H317.81v73.18H301.67V262.72H198.19v92.39h54.57V320.25H268.9v87.84H252.76V370.76H198.19v94.86H303.64V408.09h16.14v73.17Z" transform="translate(-79.6 -76.81)"/><path class="cls-2" d="M349.59,481.26V465.62h27.35V262.72H349.59V247.07h55.57L521.22,465.62h.49V262.72H489.42V247.07h77.74v15.65H539.92V481.26H512.09L395.55,262.72h-1v202.9h32.28v15.64Z" transform="translate(-79.6 -76.81)"/><text class="cls-3" transform="translate(693.48 294.8)">EnsonYan’s Studio</text><rect x="706.18" y="358.2" width="1057.79" height="5.03"/><path d="M789.88,494.6h9l14.3,49.28,16.93-49.28h4.81l16.93,49.28,14.3-49.28h9l-19.33,60.83h-7.27l-16-45.53-16,45.53h-7.26Z" transform="translate(-79.6 -76.81)"/><path d="M882.69,494.6h9L906,543.88l16.94-49.28h4.8l16.94,49.28,14.29-49.28h9l-19.34,60.83h-7.26l-16-45.53-16,45.53H902Z" transform="translate(-79.6 -76.81)"/><path d="M975.5,494.6h9l14.3,49.28,16.93-49.28h4.8l16.94,49.28,14.29-49.28h9l-19.34,60.83h-7.26l-16-45.53-16,45.53h-7.27Z" transform="translate(-79.6 -76.81)"/><path d="M1066.56,547H1075v8.44h-8.44Z" transform="translate(-79.6 -76.81)"/><path d="M1107.87,556.3l-6-3.19a21.31,21.31,0,0,1-9.11-9.32,32,32,0,0,1-3.13-14.73V522.2a35.89,35.89,0,0,1,3-15.41,21.55,21.55,0,0,1,8.76-9.72,27,27,0,0,1,13.83-3.34,24.55,24.55,0,0,1,13,3.28,20.93,20.93,0,0,1,8.23,9.58,36.72,36.72,0,0,1,2.84,15.14v7h-43.94v-7.62h36.09v-.59q0-9-4.25-14t-12-4.95q-8.49,0-13.12,5.21t-4.63,14.77v7.73q0,9.15,4.92,14.15t13.89,5a21,21,0,0,0,8.34-1.76,23,23,0,0,0,7.36-5l5.74,5.51a32.38,32.38,0,0,1-10.08,6.71,29,29,0,0,1-11.36,2.37Z" transform="translate(-79.6 -76.81)"/><path d="M1155.74,494.6h8.44v60.83h-8.44Zm40.43,24q0-8.09-4.25-12.54t-12-4.45q-7.5,0-11.63,3.95t-4.13,11.22L1163,505a19.77,19.77,0,0,1,8.55-8.64,27.26,27.26,0,0,1,12.36-2.66q9.9,0,15.33,6.47t5.42,18.31v36.92h-8.44Z" transform="translate(-79.6 -76.81)"/><path d="M1238.77,556.3l-4.63-1a39.71,39.71,0,0,1-8.65-2.84,31.58,31.58,0,0,1-7.11-4.52l4.86-5.91a45.1,45.1,0,0,0,10.31,5.18,31,31,0,0,0,10.14,1.85q8.73,0,13.5-3a9.42,9.42,0,0,0,4.78-8.44q0-4-2.32-6a12.55,12.55,0,0,0-5.83-2.69,84.13,84.13,0,0,0-9.78-1.17q-.58-.06-1.2-.09t-1.2-.09a3.59,3.59,0,0,1-.47,0,3.71,3.71,0,0,0-.47,0,56.84,56.84,0,0,1-10.08-1.75,13.76,13.76,0,0,1-6.77-4.4q-2.71-3.23-2.72-9.32a17.11,17.11,0,0,1,2.84-10,17.79,17.79,0,0,1,8.32-6.27,35.88,35.88,0,0,1,13.16-2.16,40.54,40.54,0,0,1,8,.79,41.48,41.48,0,0,1,7.65,2.28,34.94,34.94,0,0,1,6.71,3.61l-4.86,5.8a40.82,40.82,0,0,0-9-3.9,31.15,31.15,0,0,0-8.79-1.38q-7.66,0-11.89,2.87a9.24,9.24,0,0,0-4.22,8.09,6.44,6.44,0,0,0,2.29,5.42,12.54,12.54,0,0,0,5.77,2.37,91.93,91.93,0,0,0,9.58.94l.5,0,.49,0h.36a1.12,1.12,0,0,1,.35.06,52.38,52.38,0,0,1,10.87,1.58,14.79,14.79,0,0,1,7.53,4.86q3,3.65,3,10.49a16.58,16.58,0,0,1-3,10.08,19,19,0,0,1-8.91,6.36,40.43,40.43,0,0,1-14.12,2.19Z" transform="translate(-79.6 -76.81)"/><path d="M1294.78,553.2a20.48,20.48,0,0,1-8.58-9.05,31.8,31.8,0,0,1-3-14.33v-9.9a31.09,31.09,0,0,1,3-14.15,20.35,20.35,0,0,1,8.58-9,31.37,31.37,0,0,1,27.07,0,20.42,20.42,0,0,1,8.59,9,31.22,31.22,0,0,1,3,14.15V530a31.36,31.36,0,0,1-3,14.2,20.6,20.6,0,0,1-8.59,9,31.1,31.1,0,0,1-27.07,0Zm25.81-9.58c2.91-3.22,4.37-7.77,4.37-13.62V519.92q0-8.73-4.37-13.54t-12.33-4.8q-7.92,0-12.25,4.8t-4.33,13.54V530c0,5.85,1.44,10.4,4.33,13.62s7,4.83,12.25,4.83S1317.68,546.84,1320.59,543.62Z" transform="translate(-79.6 -76.81)"/><path d="M1350.39,494.6h8.43v60.83h-8.43Zm40.43,24q0-8.09-4.25-12.54t-12-4.45q-7.5,0-11.63,3.95t-4.14,11.22L1357.59,505a19.79,19.79,0,0,1,8.56-8.64,27.23,27.23,0,0,1,12.36-2.66q9.9,0,15.32,6.47t5.42,18.31v36.92h-8.43Z" transform="translate(-79.6 -76.81)"/><path d="M1409.22,494.6h8.67l20,56.43-4.4,9.38Zm53.84,0-25.9,75.06a17.69,17.69,0,0,1-3.69,6.6,12.87,12.87,0,0,1-5.62,3.48,27.63,27.63,0,0,1-8.2,1.06h-2.41v-8h2.41a12,12,0,0,0,7.47-2.14q2.78-2.15,4.77-7.35l22.5-68.74Z" transform="translate(-79.6 -76.81)"/><path d="M1476.54,551.38q-5.86-4.92-5.86-13.88,0-8.62,5.36-13.33t15.15-4.72h20.21l.82,7.85h-21q-5.87,0-9.06,2.67a10.2,10.2,0,0,0,.82,15.52q4,2.85,11.34,2.85,7.86,0,12.19-1.59c2.89-1,4.34-2.54,4.34-4.45l1.23,8a16.54,16.54,0,0,1-4.66,3.25,26.32,26.32,0,0,1-6.51,2.08,41.63,41.63,0,0,1-7.88.7Q1482.4,556.3,1476.54,551.38Zm34.34-34.51q0-7.38-4-11.45t-11.22-4.08a26.35,26.35,0,0,0-8.5,1.41,24.07,24.07,0,0,0-7.38,4l-6.15-4.22a22.77,22.77,0,0,1,9.11-6.47,33,33,0,0,1,12.57-2.31,28.93,28.93,0,0,1,13,2.66,18.52,18.52,0,0,1,8.2,7.74,24.76,24.76,0,0,1,2.81,12.21v39.09h-8.43Z" transform="translate(-79.6 -76.81)"/><path d="M1537.48,494.6h8.43v60.83h-8.43Zm40.43,24q0-8.09-4.25-12.54t-12-4.45q-7.5,0-11.63,3.95t-4.14,11.22L1544.68,505a19.79,19.79,0,0,1,8.56-8.64,27.23,27.23,0,0,1,12.36-2.66q9.9,0,15.32,6.47t5.42,18.31v36.92h-8.43Z" transform="translate(-79.6 -76.81)"/><path d="M1604.51,547H1613v8.44h-8.44Z" transform="translate(-79.6 -76.81)"/><path d="M1645.11,556.3l-5.86-2.93a19.06,19.06,0,0,1-8.76-8.78q-2.9-5.87-2.9-14.71v-10q0-8.73,2.93-14.53a19.13,19.13,0,0,1,8.76-8.7q5.84-2.91,14.62-2.9a35.61,35.61,0,0,1,9.08,1.08,24.48,24.48,0,0,1,7.33,3.22,22,22,0,0,1,5.62,5.42l-6.27,5.57a20.48,20.48,0,0,0-7-5.6,19.81,19.81,0,0,0-8.58-1.84q-9.09,0-13.57,4.54T1636,519.86v10q0,9.32,4.51,13.94t13.54,4.63a22.45,22.45,0,0,0,9.05-1.76,21.29,21.29,0,0,0,7.35-5.33l5.45,5.39a22.06,22.06,0,0,1-5.62,5.34,24.38,24.38,0,0,1-7.33,3.16,36.57,36.57,0,0,1-9.08,1Z" transform="translate(-79.6 -76.81)"/><path d="M1698.9,553.2a20.48,20.48,0,0,1-8.58-9.05,31.93,31.93,0,0,1-3-14.33v-9.9a31.22,31.22,0,0,1,3-14.15,20.35,20.35,0,0,1,8.58-9,31.37,31.37,0,0,1,27.07,0,20.42,20.42,0,0,1,8.59,9,31.22,31.22,0,0,1,3,14.15V530a31.36,31.36,0,0,1-3,14.2,20.6,20.6,0,0,1-8.59,9,31.1,31.1,0,0,1-27.07,0Zm25.81-9.58c2.91-3.22,4.37-7.77,4.37-13.62V519.92q0-8.73-4.37-13.54t-12.33-4.8q-7.91,0-12.25,4.8t-4.33,13.54V530c0,5.85,1.44,10.4,4.33,13.62s7,4.83,12.25,4.83S1721.8,546.84,1724.71,543.62Z" transform="translate(-79.6 -76.81)"/><path d="M1754.51,494.6H1763v60.83h-8.44Zm38.08,24q0-8.09-3.83-12.54t-10.93-4.45q-7.1,0-11,4T1763,516.93l-1.23-11.72a19.59,19.59,0,0,1,8-8.79,23.64,23.64,0,0,1,11.49-2.69,19.31,19.31,0,0,1,10.75,2.9,18,18,0,0,1,6.8,8.46,35,35,0,0,1,2.31,13.42v36.92h-8.44Zm38.09,0q0-8.09-3.87-12.54t-10.9-4.45q-7.08,0-11,4.33T1801,518.1l-3.57-8.79a26.06,26.06,0,0,1,8.14-11.57,19.94,19.94,0,0,1,12.54-4,21.2,21.2,0,0,1,11.34,2.9,18.3,18.3,0,0,1,7.18,8.46,33.09,33.09,0,0,1,2.46,13.42v36.92h-8.44Z" transform="translate(-79.6 -76.81)"/></svg>